<svg xmlns="http://www.w3.org/2000/svg" viewBox="0 0 64 64">
  <!-- Iron wall sconce. The static flame is subtle - live fire comes from the
       CPUParticles2D the Room attaches at the bowl (y~18). -->
  <!-- bracket -->
  <path d="M26 58 L38 58 L35 50 L29 50 Z" fill="#3a3a44"/>
  <rect x="30" y="26" width="4" height="26" rx="1.6" fill="#4a4a55"/>
  <rect x="29" y="30" width="6" height="3" rx="1.2" fill="#3a3a44"/>
  <rect x="29" y="44" width="6" height="3" rx="1.2" fill="#3a3a44"/>
  <!-- bowl -->
  <path d="M23 22 L41 22 L37 29 L27 29 Z" fill="#4f4f5b"/>
  <path d="M23 22 L32 22 L32 29 L27 29 Z" fill="#5b5b68"/>
  <!-- coals -->
  <ellipse cx="32" cy="22" rx="7.5" ry="2.6" fill="#7a3c1e"/>
  <!-- resting flame -->
  <path d="M32 6 C36.4 11 37.4 15.5 32 21 C26.6 15.5 27.6 11 32 6 Z" fill="#f08c2e"/>
  <path d="M32 10 C34.6 13 35 15.8 32 19 C29 15.8 29.4 13 32 10 Z" fill="#ffd27a"/>
  <circle cx="32" cy="14" r="11" fill="#f08c2e" opacity="0.16"/>
</svg>
