<svg xmlns="http://www.w3.org/2000/svg" viewBox="0 0 64 64">
  <!-- Flame Cleric: white-and-crimson vestments, censer staff burning silver fire -->
  <!-- robe (covers legs) -->
  <path d="M32 24 C24 26 21 36 20 52 L24 49 L28 54 L32 50 L36 54 L40 49 L44 52 C43 36 40 26 32 24 Z" fill="#b9455f"/>
  <path d="M32 25 C26 27 23 37 22 50 L28 54 L32 50 L32 25 Z" fill="#d15877"/>
  <!-- white stole with flames -->
  <path d="M28 26 L31 26 L31 48 L28 48 Z" fill="#e8e4da"/>
  <path d="M33 26 L36 26 L36 48 L33 48 Z" fill="#e8e4da"/>
  <path d="M29.5 42 C30.6 43.4 30.6 44.6 29.5 46 C28.4 44.6 28.4 43.4 29.5 42 Z" fill="#b9455f"/>
  <path d="M34.5 42 C35.6 43.4 35.6 44.6 34.5 46 C33.4 44.6 33.4 43.4 34.5 42 Z" fill="#b9455f"/>
  <!-- mitre-hood -->
  <path d="M32 2 C38 6 40 12 39 19 C35 22 29 22 25 19 C24 12 26 6 32 2 Z" fill="#d15877"/>
  <path d="M32 4 C36 7 37.5 12 36.8 18 C34 20 30 20 27.2 18 C26.5 12 28 7 32 4 Z" fill="#e8e4da"/>
  <path d="M32 8 C33.6 10 33.6 12 32 14 C30.4 12 30.4 10 32 8 Z" fill="#b9455f"/>
  <!-- shadowed face -->
  <ellipse cx="32" cy="19" rx="6" ry="4.6" fill="#3a2030"/>
  <circle cx="29.5" cy="19" r="1.3" fill="#ffb443"/>
  <circle cx="34.5" cy="19" r="1.3" fill="#ffb443"/>
  <!-- censer staff (right): chained brazier of silver flame -->
  <rect x="44" y="30" width="8" height="3.2" rx="1.6" fill="#d8cbb8"/>
  <rect x="50.5" y="10" width="2.8" height="38" rx="1.3" fill="#7d6a52"/>
  <path d="M47 12 L57 12 L55.4 18 L48.6 18 Z" fill="#8b95a3"/>
  <path d="M51.9 3 C54.4 5.8 54.4 8.4 51.9 11 C49.4 8.4 49.4 5.8 51.9 3 Z" fill="#e8ecf2"/>
  <path d="M51.9 5 C53.3 6.7 53.3 8 51.9 9.6 C50.5 8 50.5 6.7 51.9 5 Z" fill="#ffd9a0"/>
  <circle cx="52" cy="8" r="7.5" fill="#e8ecf2" opacity="0.18"/>
  <!-- open hand (left) with ember -->
  <rect x="16" y="30" width="8" height="3.2" rx="1.6" fill="#d8cbb8"/>
  <circle cx="14.5" cy="31.5" r="2.4" fill="#ffb443"/>
  <circle cx="14.5" cy="31.5" r="4.4" fill="#ffb443" opacity="0.3"/>
</svg>
