<svg xmlns="http://www.w3.org/2000/svg" viewBox="0 0 64 64">
  <!-- Templar Juggernaut: massive rust-bronze plate, kite shield wall, flail -->
  <!-- legs -->
  <rect x="24.5" y="47" width="5.4" height="12" rx="2.5" fill="#6b5a4a"/>
  <rect x="34.1" y="47" width="5.4" height="12" rx="2.5" fill="#6b5a4a"/>
  <!-- huge torso -->
  <path d="M18 26 L46 26 L48 48 L16 48 Z" fill="#8a5a40"/>
  <path d="M18 26 L32 26 L32 48 L16 48 Z" fill="#a06a4c"/>
  <!-- girdle + rivets -->
  <path d="M17 40 L47 40 L47.6 44 L16.4 44 Z" fill="#5d4433"/>
  <circle cx="21" cy="30" r="1.2" fill="#d8b088"/>
  <circle cx="43" cy="30" r="1.2" fill="#d8b088"/>
  <circle cx="20" cy="36" r="1.2" fill="#d8b088"/>
  <circle cx="44" cy="36" r="1.2" fill="#d8b088"/>
  <!-- flame emblem -->
  <path d="M32 29 C34.8 32.4 34.8 35.2 32 38 C29.2 35.2 29.2 32.4 32 29 Z" fill="#e8ecf2"/>
  <!-- spiked pauldrons -->
  <ellipse cx="18" cy="27" rx="7" ry="5" fill="#a06a4c"/>
  <ellipse cx="46" cy="27" rx="7" ry="5" fill="#a06a4c"/>
  <path d="M14 23 L16 18 L18 23 Z" fill="#d8b088"/>
  <path d="M44 23 L46 18 L48 23 Z" fill="#d8b088"/>
  <!-- bucket helm -->
  <path d="M24 9 C24 4 40 4 40 9 L40 21 C40 24 24 24 24 21 Z" fill="#8a5a40"/>
  <path d="M24 9 C24 4 32 4 32 4 L32 23 C28 23 24 22.5 24 21 Z" fill="#a06a4c"/>
  <rect x="26" y="12" width="12" height="2.4" rx="1.2" fill="#141824"/>
  <circle cx="29" cy="13.2" r="0.9" fill="#ffb443"/>
  <circle cx="35" cy="13.2" r="0.9" fill="#ffb443"/>
  <line x1="32" y1="15.5" x2="32" y2="21" stroke="#5d4433" stroke-width="1.4"/>
  <!-- kite shield (left, huge) -->
  <path d="M4 22 L18 22 L18 42 C18 48 11 52 11 52 C11 52 4 48 4 42 Z" fill="#5d6b7d"/>
  <path d="M5.6 23.6 L16.4 23.6 L16.4 41.5 C16.4 46 11 49.5 11 49.5 C11 49.5 5.6 46 5.6 41.5 Z" fill="#75879c"/>
  <path d="M11 27 C13 29.8 13 32.2 11 35 C9 32.2 9 29.8 11 27 Z" fill="#e8ecf2"/>
  <!-- flail arm (right) -->
  <rect x="44" y="31" width="9" height="3.8" rx="1.9" fill="#a06a4c"/>
  <line x1="53" y1="33" x2="57" y2="26" stroke="#4a4038" stroke-width="1.6"/>
  <circle cx="58" cy="24" r="4.4" fill="#6b7480"/>
  <path d="M58 18.4 L59 21 L57 21 Z" fill="#d8b088"/>
  <path d="M62.5 25 L60.5 26 L60.5 23.5 Z" fill="#d8b088"/>
  <path d="M53.5 25 L55.5 26 L55.5 23.5 Z" fill="#d8b088"/>
</svg>
