<svg xmlns="http://www.w3.org/2000/svg" viewBox="0 0 64 64">
  <!-- Skeletal Warrior: bone body, green tattered tunic, sword + round shield -->
  <!-- legs -->
  <rect x="26" y="46" width="4" height="13" rx="2" fill="#ddd6c4"/>
  <rect x="34" y="46" width="4" height="13" rx="2" fill="#ddd6c4"/>
  <!-- tattered tunic -->
  <path d="M22 30 L42 30 L44 46 L40 44 L37 48 L32 45 L27 48 L24 44 L20 46 Z" fill="#3e7a3e"/>
  <path d="M22 30 L32 30 L32 46 L27 48 L24 44 L20 46 Z" fill="#4f9a4f"/>
  <!-- ribcage above tunic -->
  <path d="M25 26 L39 26 L38 31 L26 31 Z" fill="#ddd6c4"/>
  <line x1="27" y1="27" x2="27" y2="30" stroke="#9a927e" stroke-width="1"/>
  <line x1="32" y1="27" x2="32" y2="30" stroke="#9a927e" stroke-width="1"/>
  <line x1="37" y1="27" x2="37" y2="30" stroke="#9a927e" stroke-width="1"/>
  <!-- skull -->
  <circle cx="32" cy="16" r="10" fill="#ece5d3"/>
  <path d="M26 22 L38 22 L37 27 L27 27 Z" fill="#ece5d3"/>
  <circle cx="28" cy="15" r="2.6" fill="#1c1c26"/>
  <circle cx="36" cy="15" r="2.6" fill="#1c1c26"/>
  <circle cx="28.3" cy="15" r="1" fill="#7fe8a0"/>
  <circle cx="36.3" cy="15" r="1" fill="#7fe8a0"/>
  <path d="M30 20 L34 20" stroke="#9a927e" stroke-width="1.2"/>
  <!-- sword arm (right) -->
  <rect x="41" y="31" width="9" height="3.4" rx="1.7" fill="#ddd6c4"/>
  <rect x="48.4" y="14" width="3.4" height="22" rx="1.4" fill="#b9c2cc"/>
  <rect x="45.5" y="33" width="9.2" height="3" rx="1.2" fill="#7a5a2e"/>
  <!-- shield arm (left) -->
  <rect x="14" y="31" width="9" height="3.4" rx="1.7" fill="#ddd6c4"/>
  <circle cx="14" cy="34" r="7.5" fill="#5d4a2f"/>
  <circle cx="14" cy="34" r="7.5" fill="none" stroke="#8a6a3a" stroke-width="1.6"/>
  <circle cx="14" cy="34" r="2.2" fill="#4f9a4f"/>
</svg>
